<?xml version="1.0" standalone="no"?>
<!DOCTYPE svg PUBLIC "-//W3C//DTD SVG 20010904//EN"
 "http://www.w3.org/TR/2001/REC-SVG-20010904/DTD/svg10.dtd">
<svg version="1.0" xmlns="http://www.w3.org/2000/svg"
 width="400.000000pt" height="400.000000pt" viewBox="0 0 400.000000 400.000000"
 preserveAspectRatio="xMidYMid meet">
<metadata>
Created by potrace 1.11, written by Peter Selinger 2001-2013
</metadata>
<g transform="translate(0.000000,400.000000) scale(0.100000,-0.100000)"
fill="#000000" stroke="none">
<path d="M0 2000 l0 -1940 1210 0 c1203 0 1210 0 1210 20 0 17 7 20 45 20 l45
0 0 60 0 60 70 0 70 0 0 -60 0 -60 45 0 c38 0 45 -3 45 -20 0 -20 7 -20 630
-20 l630 0 0 1940 0 1940 -2000 0 -2000 0 0 -1940z m3010 1050 l0 -100 100 0
100 0 0 -105 0 -105 -405 0 -405 0 0 -195 0 -195 -400 0 -400 0 0 195 0 195
-405 0 -406 0 3 103 3 102 103 3 102 3 0 99 0 100 1005 0 1005 0 0 -100z
m-2410 -600 l0 -100 100 0 100 0 0 -205 0 -205 400 0 400 0 0 105 0 105 400 0
400 0 0 -105 0 -105 400 0 400 0 0 205 0 205 105 0 105 0 0 100 0 100 90 0 90
0 0 -304 0 -304 -200 -7 -200 -8 0 -193 0 -194 -100 0 -99 0 -3 -97 -3 -98
-180 -3 c-211 -3 -205 -6 -205 102 0 39 -4 77 -9 84 -5 9 -36 14 -89 16 -45 1
-85 6 -90 10 -4 4 -8 44 -10 89 -2 45 -7 85 -11 89 -5 6 -412 11 -708 9 l-93
-1 0 -94 c0 -76 -3 -95 -16 -100 -9 -3 -54 -6 -100 -6 l-84 0 0 -94 c0 -76 -3
-95 -16 -100 -9 -3 -92 -6 -185 -6 -164 0 -169 1 -183 23 -8 12 -14 40 -14 62
0 22 -1 57 -1 78 l-1 37 -85 0 c-70 0 -86 3 -94 18 -5 9 -10 87 -12 172 -2 85
-5 165 -7 176 -4 21 -10 22 -198 29 l-194 7 0 304 0 304 100 0 100 0 0 -100z
m800 0 l0 -100 -100 0 -100 0 0 -100 0 -100 -100 0 -100 0 0 200 0 200 200 0
200 0 0 -100z m1600 0 l0 -100 -100 0 -100 0 0 -100 0 -100 -100 0 -100 0 0
200 0 200 200 0 200 0 0 -100z m-610 -1010 l0 -100 -400 0 -400 0 0 100 0 100
400 0 400 0 0 -100z m-202 -607 l3 -103 97 -1 c53 -1 100 -1 105 0 4 0 7 -39
7 -88 l0 -89 -62 0 c-35 0 -80 0 -100 -1 l-38 -1 0 -97 0 -98 -167 2 c-96 1
-170 6 -176 12 -6 6 -12 45 -14 88 -2 43 -7 81 -11 85 -5 5 -43 10 -85 13 -42
2 -81 6 -87 10 -15 9 -13 142 3 152 6 4 39 10 72 13 l60 5 5 90 c3 50 9 96 13
103 7 9 52 12 190 10 l182 -3 3 -102z"/>
<path d="M2520 70 c0 -6 27 -10 60 -10 33 0 60 4 60 10 0 6 -27 10 -60 10 -33
0 -60 -4 -60 -10z"/>
</g>
</svg>
